# xmcd
#
# Track frame offsets:
#	150
#	11963
#	23812
#	36367
#	48911
#	61265
#	73599
#	86192
#	98538
#	110837
#	122235
#	135989
#	149573
#	160761
#	172618
#	185472
#	199173
#	211673
#	223182
#	235858
#
# Disc length: 3310 seconds
#
# Revision: 0
# Processed by: cddbd v1.4PL0 Copyright (c) Steve Scherf et al.
# Submitted via: EasyCDDAExtractor 4.6.0.1
#
DISCID=1d0cec14
DTITLE=Sam Lightning Hopkins - Jackstropper Blues CD2
DYEAR=2001
DGENRE=Blues
TTITLE0=What can it be
TTITLE1=European Blues
TTITLE2=Automobile Blues
TTITLE3=No mail blues
TTITLE4=Ida May
TTITLE5=Loretta Blues
TTITLE6=Jackstropper Blues
TTITLE7=Goodbye Blues
TTITLE8=Lonesome home
TTITLE9=Appitite Blues
TTITLE10=Old women blues
TTITLE11=All i got is gone
TTITLE12=Mad with you
TTITLE13=Treat me kind
TTITLE14=Baby please don`t go
TTITLE15=Seems funny baby
TTITLE16=Short haired women
TTITLE17=Big mama jump
TTITLE18=Walking Blues
TTITLE19=Rollin` women blues
EXTD=
EXTT0=
EXTT1=
EXTT2=
EXTT3=
EXTT4=
EXTT5=
EXTT6=
EXTT7=
EXTT8=
EXTT9=
EXTT10=
EXTT11=
EXTT12=
EXTT13=
EXTT14=
EXTT15=
EXTT16=
EXTT17=
EXTT18=
EXTT19=
PLAYORDER=
